<svg id="Capa_1" enable-background="new 0 0 512 512" height="512" viewBox="0 0 512 512" width="512" xmlns="http://www.w3.org/2000/svg"><path d="m319.092 164.64c-24.125 0-44.784-17.66-48.112-41.554-1.853-13.302-.433-28.382 8.543-43.01 19.245-31.362 26.911-46.184 26.838-57.259-.027-4.04 4.484-6.483 7.911-4.342 12.524 7.823 32.517 27.15 32.517 70.816l5.366-6.65c2.574-3.19 7.656-2.274 8.945 1.617 2.014 6.082 4.517 14.808 6.066 24.452 4.718 29.388-18.309 55.93-48.074 55.93z" fill="#fcc16d"/><path d="m347.929 155.211c5.81-9.394 8.462-20.849 6.546-32.77-1.543-9.643-4.05-18.374-6.059-24.453-1.295-3.894-6.37-4.806-8.949-1.616-1.815 2.249-5.443 1.089-5.625-1.795-2.205-34.956-17.956-52.397-29.558-60.587 1.44-4.278 2.102-7.892 2.082-11.175-.031-4.039 4.485-6.484 7.902-4.34 12.532 7.82 32.522 27.146 32.522 70.812l5.365-6.649c2.579-3.19 7.654-2.268 8.949 1.616 2.009 6.08 4.516 14.811 6.059 24.453 3.002 18.685-5.211 36.209-19.234 46.504z" fill="#fcb44d"/><path d="m341.4 142.261c0 12.359-10.019 22.379-22.379 22.379-12.359 0-22.379-10.019-22.379-22.379 0-8.451 10.464-24.978 17.081-34.585 2.56-3.716 8.035-3.716 10.595 0 6.619 9.607 17.082 26.134 17.082 34.585z" fill="#24d1f8"/><path d="m341.397 142.258c0 12.366-10.015 22.382-22.371 22.382-2.879 0-5.634-.538-8.151-1.543 8.327-3.252 14.22-11.352 14.22-20.839 0-7.312-7.83-20.662-14.231-30.357 1.005-1.512 1.968-2.931 2.859-4.226 2.558-3.718 8.037-3.718 10.595 0 6.618 9.612 17.079 26.132 17.079 34.583z" fill="#21c1f8"/><circle cx="408.081" cy="184.029" fill="#b9acac" r="38.721"/><path d="m446.798 184.03c0 21.38-17.33 38.72-38.72 38.72-2.45 0-4.84-.23-7.16-.66 17.96-3.36 31.56-19.13 31.56-38.06 0-18.94-13.6-34.7-31.56-38.06 2.32-.43 4.71-.66 7.16-.66 21.39 0 38.72 17.33 38.72 38.72z" fill="#9e9797"/><circle cx="408.081" cy="184.029" fill="#f8f3f1" r="14.066"/><path d="m369.36 255.755v-80.754c0-5.72-4.637-10.357-10.357-10.357h-79.956c-5.72 0-10.357 4.637-10.357 10.357v80.754z" fill="#c9f0fd"/><path d="m369.361 174.997v80.755h-17.348v-80.755c0-5.717-4.64-10.357-10.357-10.357h17.348c5.717 0 10.357 4.64 10.357 10.357z" fill="#9ce6fb"/><path d="m190.239 257.679v229.901c0 9.344 7.575 16.92 16.92 16.92h223.734c9.344 0 16.92-7.575 16.92-16.92v-229.901c0-5.72-4.637-10.357-10.357-10.357h-236.86c-5.72 0-10.357 4.637-10.357 10.357z" fill="#cdbfbb"/><path d="m447.817 257.678v229.898c0 9.353-7.582 16.924-16.924 16.924h-19.275c9.342 0 16.924-7.571 16.924-16.924v-229.898c0-5.717-4.64-10.357-10.357-10.357h19.275c5.717 0 10.357 4.64 10.357 10.357z" fill="#b9acac"/><path d="m179.882 7.5h-98.775c-9.344 0-16.92 7.575-16.92 16.92v223.734c0 9.344 7.575 16.92 16.92 16.92h98.774c5.72 0 10.357-4.637 10.357-10.357v-236.86c.001-5.72-4.636-10.357-10.356-10.357z" fill="#cdbfbb"/><path d="m190.234 17.858v236.858c0 5.717-4.63 10.357-10.357 10.357h-18.291c5.717 0 10.357-4.64 10.357-10.357v-236.858c0-5.717-4.64-10.357-10.357-10.357h18.291c5.727 0 10.357 4.64 10.357 10.357z" fill="#b9acac"/><path d="m447.812 416.833c4.143 0 7.5-3.358 7.5-7.5v-151.653c0-9.847-8.011-17.857-17.856-17.857h-60.595v-21.745c8.231 7.554 19.195 12.173 31.221 12.173 25.486 0 46.221-20.734 46.221-46.221s-20.734-46.221-46.221-46.221c-16.684 0-31.329 8.886-39.456 22.173-2.78-1.787-6.078-2.838-9.622-2.838h-1.669c1.619-1.5 3.166-3.095 4.616-4.796 10.599-12.436 15.198-28.775 12.621-44.829-1.661-10.341-4.371-19.641-6.353-25.621-1.459-4.405-5.201-7.656-9.767-8.484-1.704-.31-3.422-.263-5.056.107-4.314-36.622-23.28-53.992-35.15-61.407-3.925-2.453-8.878-2.571-12.928-.309-4.014 2.243-6.488 6.481-6.457 11.061.063 9.497-8.615 25.396-25.73 53.287-8.793 14.329-12.016 30.468-9.579 47.967 1.816 13.039 8.19 24.543 17.37 33.024h-1.874c-9.846 0-17.856 8.011-17.856 17.857v64.821h-22.009v-16.08c0-14.943-12.157-27.1-27.1-27.1h-14.344v-178.785c0-9.846-8.011-17.857-17.858-17.857h-98.773c-13.465 0-24.42 10.955-24.42 24.419v58.914c0 4.142 3.357 7.5 7.5 7.5s7.5-3.358 7.5-7.5v-58.914c0-5.194 4.226-9.419 9.42-9.419h98.773c1.575 0 2.857 1.282 2.857 2.857v236.859c0 1.575-1.282 2.857-2.857 2.857h-98.773c-5.194 0-9.42-4.226-9.42-9.419v-130.82c0-4.142-3.357-7.5-7.5-7.5s-7.5 3.358-7.5 7.5v130.82c0 13.465 10.955 24.419 24.42 24.419h98.773c.975 0 1.925-.1 2.857-.251v215.258c0 13.465 10.955 24.42 24.42 24.42h223.734c13.465 0 24.419-10.955 24.419-24.42v-44.247c0-4.142-3.357-7.5-7.5-7.5s-7.5 3.358-7.5 7.5v44.247c0 5.194-4.226 9.42-9.419 9.42h-223.733c-5.194 0-9.42-4.226-9.42-9.42v-229.9c0-1.576 1.282-2.857 2.857-2.857h116.072c4.143 0 7.5-3.358 7.5-7.5s-3.357-7.5-7.5-7.5h-40.478v-64.821c0-1.575 1.281-2.857 2.856-2.857h79.956c1.575 0 2.857 1.282 2.857 2.857v64.821h-11.191c-4.143 0-7.5 3.358-7.5 7.5s3.357 7.5 7.5 7.5h86.786c1.575 0 2.856 1.282 2.856 2.857v151.653c.002 4.142 3.359 7.5 7.502 7.5zm-223.63-177.011h-23.586c-.975 0-1.925.1-2.857.251v-28.431h14.344c6.672 0 12.1 5.428 12.1 12.1v16.08zm94.862-82.683c-.027 0-.053-.002-.08-.002-8.177-.032-14.821-6.691-14.821-14.875 0-3.351 3.918-12.938 14.879-29.046 10.959 16.106 14.878 25.694 14.878 29.046 0 8.196-6.662 14.865-14.856 14.877zm29.762-12.627c.056-.744.094-1.493.094-2.251 0-2.999 0-12.125-18.404-38.839-2.602-3.777-6.892-6.033-11.475-6.033-4.582 0-8.872 2.255-11.474 6.033-18.404 26.719-18.404 35.841-18.404 38.839 0 .689.032 1.37.078 2.047-5.695-5.974-9.615-13.659-10.812-22.258-1.945-13.963.581-26.766 7.507-38.052 17.697-28.84 26.168-44.39 27.692-56.919 22.249 16.337 25.681 45.689 25.681 62.211 0 3.18 2.005 6.014 5.003 7.072 2.997 1.057 6.338.113 8.334-2.363l2.651-3.285c1.569 5.199 3.317 11.925 4.483 19.184 1.88 11.708-1.483 23.634-9.227 32.72-.556.653-1.135 1.281-1.727 1.894zm59.276 8.297c17.215 0 31.221 14.005 31.221 31.221s-14.006 31.221-31.221 31.221-31.221-14.005-31.221-31.221 14.006-31.221 31.221-31.221z"/><path d="m302.717 186.285h-1.04c-4.143 0-7.5 3.358-7.5 7.5s3.357 7.5 7.5 7.5h1.04c4.143 0 7.5-3.358 7.5-7.5s-3.357-7.5-7.5-7.5z"/><path d="m335.333 201.285h1.04c4.143 0 7.5-3.358 7.5-7.5s-3.357-7.5-7.5-7.5h-1.04c-4.143 0-7.5 3.358-7.5 7.5s3.358 7.5 7.5 7.5z"/><path d="m302.717 211.142h-1.04c-4.143 0-7.5 3.358-7.5 7.5s3.357 7.5 7.5 7.5h1.04c4.143 0 7.5-3.358 7.5-7.5s-3.357-7.5-7.5-7.5z"/><path d="m335.333 226.142h1.04c4.143 0 7.5-3.358 7.5-7.5s-3.357-7.5-7.5-7.5h-1.04c-4.143 0-7.5 3.358-7.5 7.5s3.358 7.5 7.5 7.5z"/><path d="m408.082 205.596c11.892 0 21.565-9.675 21.565-21.566s-9.674-21.566-21.565-21.566-21.566 9.674-21.566 21.566 9.674 21.566 21.566 21.566zm0-28.133c3.62 0 6.565 2.945 6.565 6.566s-2.945 6.566-6.565 6.566c-3.621 0-6.566-2.946-6.566-6.566s2.944-6.566 6.566-6.566z"/></svg>